<svg id="svg" version="1.1" xmlns="http://www.w3.org/2000/svg" xmlns:xlink="http://www.w3.org/1999/xlink" width="101" height="64.001" viewBox="0, 0, 400,400"><g id="svgg"><path id="path0" d="M229.000 61.887 C 227.683 62.207,225.821 63.817,225.108 65.253 C 224.740 65.994,223.644 68.310,222.672 70.400 C 217.660 81.180,210.684 82.872,198.140 76.349 C 192.277 73.300,188.795 74.371,185.325 80.291 C 183.425 83.534,183.766 85.352,187.525 92.024 C 192.708 101.225,189.813 108.610,178.982 113.817 C 171.611 117.360,169.931 120.381,171.810 126.708 C 173.010 130.748,174.756 132.008,180.852 133.230 C 193.360 135.737,197.607 142.772,193.854 154.770 C 191.776 161.416,192.757 163.755,198.803 166.570 C 202.751 168.407,205.559 167.858,209.516 164.474 C 220.246 155.297,227.842 156.036,235.292 166.983 C 238.848 172.209,242.424 173.248,247.802 170.617 C 251.271 168.919,251.738 167.820,252.058 160.600 C 252.663 146.943,257.850 141.891,270.600 142.539 C 277.919 142.912,278.617 142.435,281.394 135.169 C 283.215 130.405,282.709 129.154,277.693 126.023 C 267.353 119.569,265.684 109.466,273.420 100.161 C 277.713 94.997,278.049 91.774,274.824 86.699 C 272.454 82.968,270.274 82.496,263.499 84.245 C 250.470 87.610,242.816 81.964,241.386 67.935 C 240.826 62.446,236.133 60.154,229.000 61.887 M232.200 89.822 C 247.910 91.799,258.757 110.444,253.829 127.000 C 246.127 152.875,208.781 152.040,200.124 125.800 C 195.613 112.127,204.500 96.010,219.440 90.770 C 223.392 89.385,226.746 89.135,232.200 89.822 M222.400 93.804 C 206.700 98.119,198.796 115.206,206.489 128.200 C 216.691 145.431,243.501 143.803,249.249 125.605 C 255.017 107.346,239.593 89.078,222.400 93.804 M230.168 101.216 C 235.862 102.039,240.037 105.025,242.328 109.913 C 243.989 113.457,243.938 121.504,242.232 124.978 C 235.675 138.334,214.118 136.234,210.816 121.917 C 207.798 108.836,216.737 99.275,230.168 101.216 M115.282 119.374 C 113.781 120.729,113.376 121.471,110.658 127.833 C 104.150 143.062,91.760 147.466,78.042 139.425 C 70.997 135.296,68.700 135.330,63.382 139.645 C 55.849 145.757,55.592 148.201,61.390 158.600 C 68.628 171.583,62.872 185.137,47.965 190.211 C 41.968 192.252,40.295 194.360,40.341 199.816 C 40.430 210.539,42.389 213.113,51.000 213.822 C 67.312 215.164,76.033 228.327,70.799 243.706 C 68.403 250.745,68.679 252.736,72.586 256.600 C 79.698 263.634,83.784 263.636,91.233 256.607 C 102.389 246.078,117.671 247.572,125.939 259.998 C 131.148 267.827,134.224 269.113,141.295 266.420 C 147.437 264.081,149.873 261.120,149.650 256.265 C 149.244 247.459,149.411 244.734,150.530 241.856 C 154.555 231.505,163.853 225.419,172.900 227.212 C 182.486 229.112,185.225 227.512,188.196 218.279 C 190.377 211.501,189.218 208.836,182.053 204.147 C 168.410 195.219,166.915 182.127,178.110 169.610 C 183.740 163.315,184.334 161.155,181.810 156.154 C 177.708 148.027,173.062 146.165,164.400 149.173 C 149.786 154.249,137.057 145.955,135.405 130.279 C 134.603 122.673,133.622 121.564,125.589 119.178 C 119.944 117.501,117.299 117.551,115.282 119.374 M118.805 157.591 C 158.305 161.436,162.400 221.901,123.672 229.448 C 93.277 235.371,68.551 204.576,82.684 178.400 C 88.747 167.170,100.443 158.799,111.733 157.610 C 113.310 157.444,114.690 157.289,114.800 157.265 C 114.910 157.240,116.712 157.387,118.805 157.591 M271.753 160.161 C 268.853 161.511,266.825 164.440,265.402 169.332 C 260.088 187.613,240.893 195.110,225.800 184.799 C 217.540 179.157,212.694 179.608,206.013 186.641 C 199.854 193.125,199.552 197.873,204.809 205.614 C 214.955 220.553,208.244 240.204,191.421 244.820 C 182.304 247.321,180.800 249.496,180.800 260.175 C 180.800 271.234,182.665 273.305,193.600 274.390 C 212.928 276.307,223.049 291.917,216.845 310.242 C 213.453 320.261,214.653 323.933,222.800 328.474 C 230.737 332.898,234.843 332.144,242.530 324.853 C 249.126 318.598,253.299 316.715,260.600 316.701 C 269.803 316.682,278.777 321.761,283.392 329.600 C 289.161 339.398,293.680 340.774,303.800 335.813 C 311.531 332.023,313.522 327.600,311.188 319.400 C 309.143 312.216,310.522 306.896,316.084 300.513 C 324.324 291.057,333.308 287.361,342.258 289.745 C 350.005 291.809,353.929 289.846,356.023 282.857 C 356.507 281.239,357.511 278.750,358.252 277.328 C 361.318 271.445,359.780 268.222,351.600 263.392 C 334.803 253.472,332.124 232.729,346.038 220.320 C 354.352 212.905,354.240 208.126,345.530 198.620 C 341.583 194.312,337.328 193.253,332.000 195.251 C 325.874 197.549,324.300 197.988,321.375 198.215 C 307.160 199.320,294.983 188.648,293.974 174.200 C 293.297 164.521,291.527 162.236,283.127 160.201 C 277.787 158.907,274.471 158.896,271.753 160.161 M111.390 161.217 C 94.145 163.472,79.996 182.069,82.795 198.800 C 86.837 222.955,115.999 235.070,135.461 220.679 C 150.837 209.309,151.288 181.398,136.301 168.681 C 129.110 162.579,120.561 160.017,111.390 161.217 M120.108 171.388 C 138.552 175.296,143.460 202.623,127.550 212.832 C 115.342 220.666,97.361 213.989,93.227 200.085 C 88.413 183.897,103.440 167.856,120.108 171.388 M281.677 205.531 C 319.311 215.207,328.498 262.727,297.271 286.199 C 267.053 308.914,226.730 289.524,225.318 251.600 C 224.115 219.282,250.686 197.563,281.677 205.531 M262.000 208.611 C 241.643 213.979,227.000 233.834,228.837 253.579 C 231.825 285.691,270.636 302.767,296.883 283.517 C 316.236 269.323,317.081 234.713,298.483 217.979 C 288.567 209.058,274.249 205.381,262.000 208.611 M277.559 223.015 C 293.517 226.777,302.208 247.013,294.646 262.800 C 285.393 282.115,255.792 281.262,246.016 261.400 C 236.053 241.160,255.280 217.763,277.559 223.015 " stroke="none" fill="#f39325" fill-rule="evenodd"></path><path id="path1" d="M0.000 200.000 L 0.000 400.000 200.000 400.000 L 400.000 400.000 400.000 200.000 L 400.000 0.000 200.000 0.000 L 0.000 0.000 0.000 200.000 M239.000 62.118 C 240.854 63.167,241.433 64.523,242.024 69.200 C 243.659 82.132,251.968 87.494,264.400 83.640 C 270.089 81.877,271.906 82.325,274.908 86.236 C 278.708 91.184,278.317 95.087,273.449 100.798 C 265.865 109.694,267.851 119.014,278.877 126.279 C 283.288 129.184,283.634 130.360,281.645 135.683 C 279.019 142.714,278.597 142.995,270.669 143.015 C 256.781 143.050,252.437 147.718,252.408 162.640 C 252.387 173.174,240.867 176.196,234.940 167.222 C 227.887 156.543,219.751 155.929,209.206 165.279 C 205.459 168.602,202.739 168.957,198.200 166.715 C 192.345 163.822,191.527 161.671,193.470 154.274 C 196.611 142.320,192.674 135.780,181.124 133.763 C 174.377 132.585,172.018 130.602,171.198 125.416 C 170.252 119.436,172.056 116.185,177.516 114.033 C 189.505 109.308,192.547 101.077,186.181 90.589 C 182.902 85.189,182.940 82.367,186.345 78.153 C 190.295 73.265,192.621 73.028,200.123 76.746 C 211.980 82.623,218.357 80.117,223.577 67.529 C 225.758 62.269,227.367 61.236,233.400 61.222 C 236.827 61.214,237.629 61.343,239.000 62.118 M221.600 90.606 C 197.442 96.528,191.693 127.751,212.330 140.951 C 236.719 156.552,263.660 131.850,251.540 105.000 C 246.637 94.138,233.316 87.734,221.600 90.606 M234.200 93.743 C 246.204 97.225,253.098 110.094,250.224 123.652 C 245.830 144.384,215.635 146.840,205.494 127.291 C 196.281 109.531,214.645 88.069,234.200 93.743 M220.200 102.410 C 208.227 106.228,207.377 125.989,218.948 131.516 C 231.276 137.405,243.072 130.372,242.961 117.200 C 242.859 104.993,232.734 98.414,220.200 102.410 M124.270 118.381 C 133.713 120.864,135.362 122.647,136.003 131.074 C 137.043 144.753,150.515 153.694,163.200 149.124 C 172.307 145.842,175.810 146.675,180.653 153.273 C 185.128 159.369,184.679 163.012,178.639 169.600 C 167.563 181.682,169.177 196.400,182.400 203.900 C 189.772 208.081,191.197 212.406,187.881 220.539 C 184.824 228.036,181.452 229.800,174.000 227.800 C 161.253 224.379,147.525 238.448,149.929 252.468 C 151.233 260.072,149.617 263.006,142.231 266.449 C 134.951 269.843,131.135 268.494,125.836 260.653 C 117.173 247.835,102.504 246.469,90.893 257.399 C 85.125 262.829,82.751 263.528,78.200 261.138 C 69.090 256.355,67.096 251.500,70.649 242.755 C 76.079 229.394,66.758 215.908,51.036 214.378 C 44.555 213.747,42.097 212.294,40.833 208.345 C 40.350 206.836,39.614 199.554,39.832 198.437 C 39.900 198.086,40.065 197.121,40.198 196.291 C 40.648 193.484,43.974 190.776,48.407 189.609 C 62.737 185.837,68.209 170.287,59.956 156.790 C 55.563 149.605,55.833 146.027,61.141 141.117 C 67.822 134.936,70.533 134.466,77.046 138.359 C 90.624 146.474,102.416 143.440,109.151 130.097 C 109.834 128.743,110.828 126.481,111.360 125.069 C 113.073 120.516,114.814 118.416,117.565 117.582 C 119.184 117.092,119.524 117.132,124.270 118.381 M108.569 158.614 C 86.799 163.395,73.492 187.396,81.678 207.116 C 94.241 237.385,138.573 237.276,148.384 206.952 C 157.206 179.681,135.062 152.796,108.569 158.614 M282.800 159.677 C 291.539 161.569,293.784 164.275,294.390 173.649 C 295.567 191.855,313.541 203.007,329.783 195.608 C 338.317 191.720,343.330 193.631,349.694 203.200 C 354.301 210.129,353.786 213.585,347.237 219.669 C 332.244 233.598,334.610 252.625,352.694 263.538 C 360.375 268.174,361.766 271.324,358.760 277.280 C 358.113 278.560,357.070 281.137,356.443 283.006 C 353.960 290.393,350.937 291.922,342.233 290.195 C 332.884 288.340,326.404 290.678,318.400 298.796 C 310.852 306.452,309.608 310.481,311.823 320.100 C 312.963 325.048,312.899 326.528,311.406 329.858 C 308.729 335.827,295.645 340.899,290.182 338.085 C 287.782 336.849,286.478 335.305,282.296 328.752 C 276.341 319.421,264.130 314.903,253.599 318.134 C 249.361 319.434,246.834 321.104,242.000 325.802 C 235.242 332.369,231.191 333.174,223.782 329.422 C 214.529 324.736,212.583 319.669,216.388 310.167 C 223.299 292.908,212.542 276.807,192.744 274.775 C 182.623 273.736,180.486 271.230,180.316 260.200 C 180.161 250.138,182.219 246.835,189.924 244.783 C 202.263 241.498,208.888 233.152,208.964 220.800 C 209.003 214.509,207.776 210.882,203.216 203.800 C 198.888 197.080,199.786 192.258,206.643 185.402 C 212.946 179.099,217.262 178.912,226.200 184.555 C 241.296 194.086,259.664 187.238,264.606 170.237 C 266.685 163.088,269.663 159.598,274.361 158.806 C 276.507 158.445,277.659 158.563,282.800 159.677 M125.028 161.922 C 154.281 171.264,155.877 215.481,127.320 225.412 C 120.334 227.842,109.613 227.634,103.688 224.955 C 102.527 224.430,101.425 224.000,101.239 224.000 C 100.560 224.000,94.684 219.924,92.720 218.090 C 88.934 214.553,85.045 208.649,83.965 204.800 C 83.687 203.810,83.335 202.820,83.183 202.600 C 81.515 200.195,81.723 189.875,83.541 184.789 C 89.989 166.748,108.386 156.608,125.028 161.922 M108.731 172.361 C 94.522 177.380,88.199 193.791,96.078 205.200 C 109.038 223.966,136.599 216.479,136.574 194.200 C 136.557 178.190,122.793 167.394,108.731 172.361 M263.452 204.839 C 217.844 209.650,211.553 278.641,255.400 293.147 C 284.383 302.735,315.594 280.052,315.594 249.400 C 315.594 221.655,292.349 201.790,263.452 204.839 M278.351 207.591 C 279.148 207.807,280.940 208.258,282.334 208.592 C 320.511 217.761,322.569 280.592,285.000 289.975 C 283.900 290.249,282.640 290.631,282.200 290.824 C 279.730 291.903,269.564 292.342,264.800 291.576 C 248.565 288.963,233.836 276.105,229.776 261.000 C 229.421 259.680,228.939 257.880,228.705 257.000 C 228.146 254.897,228.140 245.042,228.696 243.000 C 230.897 234.916,232.414 231.512,236.182 226.200 C 245.928 212.458,265.095 203.999,278.351 207.591 M267.800 222.762 C 267.140 222.939,265.610 223.311,264.400 223.588 C 258.201 225.006,251.155 230.369,247.576 236.394 C 242.209 245.428,242.317 255.075,247.883 263.749 C 260.582 283.539,291.579 279.242,296.152 257.057 C 299.345 241.567,291.365 227.078,277.711 223.575 C 274.164 222.665,269.568 222.288,267.800 222.762 " stroke="none" fill="#6c3c93" fill-rule="evenodd"></path><path id="path2" d="M231.700 61.491 C 232.525 61.578,233.875 61.578,234.700 61.491 C 235.525 61.405,234.850 61.334,233.200 61.334 C 231.550 61.334,230.875 61.405,231.700 61.491 M135.701 131.400 C 135.705 132.280,135.787 132.593,135.883 132.095 C 135.979 131.598,135.975 130.878,135.875 130.495 C 135.775 130.113,135.696 130.520,135.701 131.400 M226.100 133.887 C 226.705 133.978,227.695 133.978,228.300 133.887 C 228.905 133.795,228.410 133.720,227.200 133.720 C 225.990 133.720,225.495 133.795,226.100 133.887 M60.575 141.700 L 59.400 143.000 60.700 141.825 C 61.912 140.730,62.184 140.400,61.875 140.400 C 61.806 140.400,61.221 140.985,60.575 141.700 M226.705 140.683 C 227.202 140.779,227.922 140.775,228.305 140.675 C 228.687 140.575,228.280 140.496,227.400 140.501 C 226.520 140.505,226.207 140.587,226.705 140.683 M267.300 142.687 C 267.905 142.778,268.895 142.778,269.500 142.687 C 270.105 142.595,269.610 142.520,268.400 142.520 C 267.190 142.520,266.695 142.595,267.300 142.687 M170.300 147.482 C 170.795 147.578,171.605 147.578,172.100 147.482 C 172.595 147.387,172.190 147.309,171.200 147.309 C 170.210 147.309,169.805 147.387,170.300 147.482 M56.893 148.800 C 56.893 149.570,56.975 149.885,57.076 149.500 C 57.176 149.115,57.176 148.485,57.076 148.100 C 56.975 147.715,56.893 148.030,56.893 148.800 M192.493 159.600 C 192.493 160.370,192.575 160.685,192.676 160.300 C 192.776 159.915,192.776 159.285,192.676 158.900 C 192.575 158.515,192.493 158.830,192.493 159.600 M115.100 160.682 C 115.595 160.778,116.405 160.778,116.900 160.682 C 117.395 160.587,116.990 160.509,116.000 160.509 C 115.010 160.509,114.605 160.587,115.100 160.682 M137.600 169.800 C 138.346 170.570,139.047 171.200,139.157 171.200 C 139.267 171.200,138.746 170.570,138.000 169.800 C 137.254 169.030,136.553 168.400,136.443 168.400 C 136.333 168.400,136.854 169.030,137.600 169.800 M177.775 170.100 L 176.600 171.400 177.900 170.225 C 178.615 169.579,179.200 168.994,179.200 168.925 C 179.200 168.616,178.870 168.888,177.775 170.100 M114.500 171.076 C 114.885 171.176,115.515 171.176,115.900 171.076 C 116.285 170.975,115.970 170.893,115.200 170.893 C 114.430 170.893,114.115 170.975,114.500 171.076 M294.120 173.600 C 294.120 174.810,294.195 175.305,294.287 174.700 C 294.378 174.095,294.378 173.105,294.287 172.500 C 294.195 171.895,294.120 172.390,294.120 173.600 M241.905 172.283 C 242.402 172.379,243.122 172.375,243.505 172.275 C 243.887 172.175,243.480 172.096,242.600 172.101 C 241.720 172.105,241.407 172.187,241.905 172.283 M58.175 184.100 L 57.000 185.400 58.300 184.225 C 59.015 183.579,59.600 182.994,59.600 182.925 C 59.600 182.616,59.270 182.888,58.175 184.100 M82.137 194.200 C 82.139 195.960,82.209 196.630,82.293 195.689 C 82.378 194.749,82.377 193.309,82.291 192.489 C 82.205 191.670,82.136 192.440,82.137 194.200 M136.893 194.000 C 136.893 194.770,136.975 195.085,137.076 194.700 C 137.176 194.315,137.176 193.685,137.076 193.300 C 136.975 192.915,136.893 193.230,136.893 194.000 M147.293 198.000 C 147.293 198.770,147.375 199.085,147.476 198.700 C 147.576 198.315,147.576 197.685,147.476 197.300 C 147.375 196.915,147.293 197.230,147.293 198.000 M89.200 219.000 C 89.946 219.770,90.647 220.400,90.757 220.400 C 90.867 220.400,90.346 219.770,89.600 219.000 C 88.854 218.230,88.153 217.600,88.043 217.600 C 87.933 217.600,88.454 218.230,89.200 219.000 M209.324 220.600 C 209.326 221.920,209.401 222.412,209.490 221.693 C 209.579 220.974,209.577 219.894,209.486 219.293 C 209.395 218.692,209.322 219.280,209.324 220.600 M225.324 249.800 C 225.326 251.120,225.401 251.612,225.490 250.893 C 225.579 250.174,225.577 249.094,225.486 248.493 C 225.395 247.892,225.322 248.480,225.324 249.800 M106.300 249.882 C 106.795 249.978,107.605 249.978,108.100 249.882 C 108.595 249.787,108.190 249.709,107.200 249.709 C 106.210 249.709,105.805 249.787,106.300 249.882 M150.101 256.600 C 150.105 257.480,150.187 257.793,150.283 257.295 C 150.379 256.798,150.375 256.078,150.275 255.695 C 150.175 255.313,150.096 255.720,150.101 256.600 M243.775 323.700 L 242.600 325.000 243.900 323.825 C 244.615 323.179,245.200 322.594,245.200 322.525 C 245.200 322.216,244.870 322.488,243.775 323.700 " stroke="none" fill="#a35b6b" fill-rule="evenodd"></path><path id="path3" d="M218.575 76.500 L 217.400 77.800 218.700 76.625 C 219.415 75.979,220.000 75.394,220.000 75.325 C 220.000 75.016,219.670 75.288,218.575 76.500 M187.578 77.100 L 186.200 78.600 187.700 77.222 C 188.525 76.463,189.200 75.788,189.200 75.722 C 189.200 75.416,188.862 75.704,187.578 77.100 M199.600 76.979 C 199.600 77.089,200.140 77.459,200.800 77.800 C 201.460 78.141,202.000 78.331,202.000 78.221 C 202.000 78.111,201.460 77.741,200.800 77.400 C 200.140 77.059,199.600 76.869,199.600 76.979 M209.100 80.282 C 209.595 80.378,210.405 80.378,210.900 80.282 C 211.395 80.187,210.990 80.109,210.000 80.109 C 209.010 80.109,208.605 80.187,209.100 80.282 M268.500 83.076 C 268.885 83.176,269.515 83.176,269.900 83.076 C 270.285 82.975,269.970 82.893,269.200 82.893 C 268.430 82.893,268.115 82.975,268.500 83.076 M255.312 85.095 C 256.364 85.177,257.984 85.176,258.912 85.092 C 259.840 85.008,258.980 84.941,257.000 84.942 C 255.020 84.943,254.260 85.012,255.312 85.095 M246.383 97.300 C 248.041 99.066,248.400 99.384,248.400 99.083 C 248.400 99.019,247.545 98.164,246.500 97.183 L 244.600 95.400 246.383 97.300 M207.381 98.500 L 205.800 100.200 207.500 98.619 C 209.081 97.148,209.384 96.800,209.081 96.800 C 209.016 96.800,208.251 97.565,207.381 98.500 M210.187 100.900 L 207.800 103.400 210.300 101.013 C 211.675 99.699,212.800 98.574,212.800 98.513 C 212.800 98.217,212.405 98.578,210.187 100.900 M225.900 101.082 C 226.395 101.178,227.205 101.178,227.700 101.082 C 228.195 100.987,227.790 100.909,226.800 100.909 C 225.810 100.909,225.405 100.987,225.900 101.082 M185.781 109.300 L 184.200 111.000 185.900 109.419 C 187.481 107.948,187.784 107.600,187.481 107.600 C 187.416 107.600,186.651 108.365,185.781 109.300 M203.293 114.800 C 203.293 115.570,203.375 115.885,203.476 115.500 C 203.576 115.115,203.576 114.485,203.476 114.100 C 203.375 113.715,203.293 114.030,203.293 114.800 M250.542 117.400 C 250.541 119.380,250.608 120.240,250.692 119.312 C 250.776 118.384,250.777 116.764,250.695 115.712 C 250.612 114.660,250.543 115.420,250.542 117.400 M198.934 118.000 C 198.934 119.650,199.005 120.325,199.091 119.500 C 199.178 118.675,199.178 117.325,199.091 116.500 C 199.005 115.675,198.934 116.350,198.934 118.000 M254.901 117.400 C 254.905 118.280,254.987 118.593,255.083 118.095 C 255.179 117.598,255.175 116.878,255.075 116.495 C 254.975 116.113,254.896 116.520,254.901 117.400 M118.705 117.883 C 119.202 117.979,119.922 117.975,120.305 117.875 C 120.687 117.775,120.280 117.696,119.400 117.701 C 118.520 117.705,118.207 117.787,118.705 117.883 M203.301 119.400 C 203.305 120.280,203.387 120.593,203.483 120.095 C 203.579 119.598,203.575 118.878,203.475 118.495 C 203.375 118.113,203.296 118.520,203.301 119.400 M274.000 123.000 C 275.195 124.210,276.263 125.200,276.373 125.200 C 276.483 125.200,275.595 124.210,274.400 123.000 C 273.205 121.790,272.137 120.800,272.027 120.800 C 271.917 120.800,272.805 121.790,274.000 123.000 M135.301 128.600 C 135.305 129.480,135.387 129.793,135.483 129.295 C 135.579 128.798,135.575 128.078,135.475 127.695 C 135.375 127.313,135.296 127.720,135.301 128.600 M247.178 138.300 L 245.800 139.800 247.300 138.422 C 248.696 137.138,248.984 136.800,248.678 136.800 C 248.612 136.800,247.937 137.475,247.178 138.300 M218.400 138.733 C 218.730 138.936,219.450 139.224,220.000 139.371 C 220.695 139.557,220.817 139.525,220.400 139.267 C 220.070 139.064,219.350 138.776,218.800 138.629 C 218.105 138.443,217.983 138.475,218.400 138.733 M89.700 143.487 C 90.305 143.578,91.295 143.578,91.900 143.487 C 92.505 143.395,92.010 143.320,90.800 143.320 C 89.590 143.320,89.095 143.395,89.700 143.487 M224.300 145.882 C 224.795 145.978,225.605 145.978,226.100 145.882 C 226.595 145.787,226.190 145.709,225.200 145.709 C 224.210 145.709,223.805 145.787,224.300 145.882 M229.100 145.882 C 229.595 145.978,230.405 145.978,230.900 145.882 C 231.395 145.787,230.990 145.709,230.000 145.709 C 229.010 145.709,228.605 145.787,229.100 145.882 M155.300 150.691 C 156.125 150.778,157.475 150.778,158.300 150.691 C 159.125 150.605,158.450 150.534,156.800 150.534 C 155.150 150.534,154.475 150.605,155.300 150.691 M252.101 157.800 C 252.105 158.680,252.187 158.993,252.283 158.495 C 252.379 157.998,252.375 157.278,252.275 156.895 C 252.175 156.513,252.096 156.920,252.101 157.800 M221.905 158.283 C 222.402 158.379,223.122 158.375,223.505 158.275 C 223.887 158.175,223.480 158.096,222.600 158.101 C 221.720 158.105,221.407 158.187,221.905 158.283 M275.505 159.083 C 276.002 159.179,276.722 159.175,277.105 159.075 C 277.487 158.975,277.080 158.896,276.200 158.901 C 275.320 158.905,275.007 158.987,275.505 159.083 M101.200 160.600 C 100.650 160.914,100.380 161.172,100.600 161.172 C 100.820 161.172,101.450 160.914,102.000 160.600 C 102.550 160.286,102.820 160.028,102.600 160.028 C 102.380 160.028,101.750 160.286,101.200 160.600 M252.128 162.800 C 252.128 164.230,252.201 164.815,252.289 164.100 C 252.378 163.385,252.378 162.215,252.289 161.500 C 252.201 160.785,252.128 161.370,252.128 162.800 M231.400 162.400 C 232.259 163.280,233.052 164.000,233.162 164.000 C 233.272 164.000,232.659 163.280,231.800 162.400 C 230.941 161.520,230.148 160.800,230.038 160.800 C 229.928 160.800,230.541 161.520,231.400 162.400 M125.200 162.333 C 125.530 162.536,126.250 162.824,126.800 162.971 C 127.495 163.157,127.617 163.125,127.200 162.867 C 126.870 162.664,126.150 162.376,125.600 162.229 C 124.905 162.043,124.783 162.075,125.200 162.333 M289.600 162.525 C 289.600 162.594,290.185 163.179,290.900 163.825 L 292.200 165.000 291.025 163.700 C 289.930 162.488,289.600 162.216,289.600 162.525 M89.789 168.900 L 87.000 171.800 89.900 169.011 C 91.495 167.477,92.800 166.172,92.800 166.111 C 92.800 165.817,92.380 166.206,89.789 168.900 M139.800 167.600 C 140.659 168.480,141.452 169.200,141.562 169.200 C 141.672 169.200,141.059 168.480,140.200 167.600 C 139.341 166.720,138.548 166.000,138.438 166.000 C 138.328 166.000,138.941 166.720,139.800 167.600 M202.305 167.883 C 202.802 167.979,203.522 167.975,203.905 167.875 C 204.287 167.775,203.880 167.696,203.000 167.701 C 202.120 167.705,201.807 167.787,202.305 167.883 M294.093 176.800 C 294.093 177.570,294.175 177.885,294.276 177.500 C 294.376 177.115,294.376 176.485,294.276 176.100 C 294.175 175.715,294.093 176.030,294.093 176.800 M99.200 177.800 C 98.228 178.790,97.523 179.600,97.633 179.600 C 97.743 179.600,98.628 178.790,99.600 177.800 C 100.572 176.810,101.277 176.000,101.167 176.000 C 101.057 176.000,100.172 176.810,99.200 177.800 M258.000 181.800 C 257.028 182.790,256.323 183.600,256.433 183.600 C 256.543 183.600,257.428 182.790,258.400 181.800 C 259.372 180.810,260.077 180.000,259.967 180.000 C 259.857 180.000,258.972 180.810,258.000 181.800 M84.044 183.644 C 83.798 184.351,83.666 185.000,83.752 185.085 C 83.838 185.171,84.109 184.662,84.356 183.956 C 84.602 183.249,84.734 182.600,84.648 182.515 C 84.562 182.429,84.291 182.938,84.044 183.644 M206.400 185.800 C 205.428 186.790,204.723 187.600,204.833 187.600 C 204.943 187.600,205.828 186.790,206.800 185.800 C 207.772 184.810,208.477 184.000,208.367 184.000 C 208.257 184.000,207.372 184.810,206.400 185.800 M238.900 189.491 C 239.725 189.578,241.075 189.578,241.900 189.491 C 242.725 189.405,242.050 189.334,240.400 189.334 C 238.750 189.334,238.075 189.405,238.900 189.491 M150.550 194.600 C 150.551 197.020,150.616 197.958,150.696 196.685 C 150.776 195.412,150.775 193.432,150.694 192.285 C 150.614 191.138,150.549 192.180,150.550 194.600 M78.520 194.000 C 78.520 195.210,78.595 195.705,78.687 195.100 C 78.778 194.495,78.778 193.505,78.687 192.900 C 78.595 192.295,78.520 192.790,78.520 194.000 M92.114 193.800 C 92.117 194.900,92.195 195.303,92.287 194.695 C 92.379 194.086,92.377 193.186,92.282 192.695 C 92.187 192.203,92.111 192.700,92.114 193.800 M147.328 194.400 C 147.328 195.830,147.401 196.415,147.489 195.700 C 147.578 194.985,147.578 193.815,147.489 193.100 C 147.401 192.385,147.328 192.970,147.328 194.400 M200.924 196.200 C 200.926 197.520,201.001 198.012,201.090 197.293 C 201.179 196.574,201.177 195.494,201.086 194.893 C 200.995 194.292,200.922 194.880,200.924 196.200 M335.900 194.289 C 336.615 194.378,337.785 194.378,338.500 194.289 C 339.215 194.201,338.630 194.128,337.200 194.128 C 335.770 194.128,335.185 194.201,335.900 194.289 M344.600 197.600 C 345.459 198.480,346.252 199.200,346.362 199.200 C 346.472 199.200,345.859 198.480,345.000 197.600 C 344.141 196.720,343.348 196.000,343.238 196.000 C 343.128 196.000,343.741 196.720,344.600 197.600 M318.300 198.289 C 319.015 198.378,320.185 198.378,320.900 198.289 C 321.615 198.201,321.030 198.128,319.600 198.128 C 318.170 198.128,317.585 198.201,318.300 198.289 M40.114 201.400 C 40.117 202.500,40.195 202.903,40.287 202.295 C 40.379 201.686,40.377 200.786,40.282 200.295 C 40.187 199.803,40.111 200.300,40.114 201.400 M266.917 204.297 C 268.411 204.374,270.751 204.374,272.117 204.296 C 273.482 204.218,272.260 204.155,269.400 204.155 C 266.540 204.156,265.422 204.220,266.917 204.297 M186.400 207.400 C 187.146 208.170,187.847 208.800,187.957 208.800 C 188.067 208.800,187.546 208.170,186.800 207.400 C 186.054 206.630,185.353 206.000,185.243 206.000 C 185.133 206.000,185.654 206.630,186.400 207.400 M269.911 207.493 C 270.851 207.578,272.291 207.577,273.111 207.491 C 273.930 207.405,273.160 207.336,271.400 207.337 C 269.640 207.339,268.970 207.409,269.911 207.493 M97.600 208.125 C 97.600 208.194,98.185 208.779,98.900 209.425 L 100.200 210.600 99.025 209.300 C 97.930 208.088,97.600 207.816,97.600 208.125 M110.900 215.876 C 111.285 215.976,111.915 215.976,112.300 215.876 C 112.685 215.775,112.370 215.693,111.600 215.693 C 110.830 215.693,110.515 215.775,110.900 215.876 M114.500 216.276 C 114.885 216.376,115.515 216.376,115.900 216.276 C 116.285 216.175,115.970 216.093,115.200 216.093 C 114.430 216.093,114.115 216.175,114.500 216.276 M243.178 218.700 L 241.800 220.200 243.300 218.822 C 244.696 217.538,244.984 217.200,244.678 217.200 C 244.612 217.200,243.937 217.875,243.178 218.700 M140.400 220.600 C 139.428 221.590,138.723 222.400,138.833 222.400 C 138.943 222.400,139.828 221.590,140.800 220.600 C 141.772 219.610,142.477 218.800,142.367 218.800 C 142.257 218.800,141.372 219.610,140.400 220.600 M344.386 221.900 L 342.200 224.200 344.500 222.014 C 346.637 219.982,346.983 219.600,346.686 219.600 C 346.624 219.600,345.589 220.635,344.386 221.900 M239.781 222.100 L 238.200 223.800 239.900 222.219 C 241.481 220.748,241.784 220.400,241.481 220.400 C 241.416 220.400,240.651 221.165,239.781 222.100 M110.500 226.676 C 110.885 226.776,111.515 226.776,111.900 226.676 C 112.285 226.575,111.970 226.493,111.200 226.493 C 110.430 226.493,110.115 226.575,110.500 226.676 M119.905 226.683 C 120.402 226.779,121.122 226.775,121.505 226.675 C 121.887 226.575,121.480 226.496,120.600 226.501 C 119.720 226.505,119.407 226.587,119.905 226.683 M115.105 227.083 C 115.602 227.179,116.322 227.175,116.705 227.075 C 117.087 226.975,116.680 226.896,115.800 226.901 C 114.920 226.905,114.607 226.987,115.105 227.083 M178.300 228.282 C 178.795 228.378,179.605 228.378,180.100 228.282 C 180.595 228.187,180.190 228.109,179.200 228.109 C 178.210 228.109,177.805 228.187,178.300 228.282 M251.387 230.900 L 249.000 233.400 251.500 231.013 C 252.875 229.699,254.000 228.574,254.000 228.513 C 254.000 228.217,253.605 228.578,251.387 230.900 M155.978 233.100 L 154.600 234.600 156.100 233.222 C 157.496 231.938,157.784 231.600,157.478 231.600 C 157.412 231.600,156.737 232.275,155.978 233.100 M72.520 235.200 C 72.520 236.410,72.595 236.905,72.687 236.300 C 72.778 235.695,72.778 234.705,72.687 234.100 C 72.595 233.495,72.520 233.990,72.520 235.200 M336.928 239.200 C 336.928 240.630,337.001 241.215,337.089 240.500 C 337.178 239.785,337.178 238.615,337.089 237.900 C 337.001 237.185,336.928 237.770,336.928 239.200 M225.314 245.800 C 225.317 246.900,225.395 247.303,225.487 246.695 C 225.579 246.086,225.577 245.186,225.482 244.695 C 225.387 244.203,225.311 244.700,225.314 245.800 M243.301 247.400 C 243.305 248.280,243.387 248.593,243.483 248.095 C 243.579 247.598,243.575 246.878,243.475 246.495 C 243.375 246.113,243.296 246.520,243.301 247.400 M228.493 247.600 C 228.493 248.370,228.575 248.685,228.676 248.300 C 228.776 247.915,228.776 247.285,228.676 246.900 C 228.575 246.515,228.493 246.830,228.493 247.600 M316.131 249.400 C 316.133 250.940,316.205 251.521,316.292 250.691 C 316.379 249.861,316.377 248.601,316.289 247.891 C 316.200 247.181,316.129 247.860,316.131 249.400 M228.493 252.000 C 228.493 252.770,228.575 253.085,228.676 252.700 C 228.776 252.315,228.776 251.685,228.676 251.300 C 228.575 250.915,228.493 251.230,228.493 252.000 M243.301 252.200 C 243.305 253.080,243.387 253.393,243.483 252.895 C 243.579 252.398,243.575 251.678,243.475 251.295 C 243.375 250.913,243.296 251.320,243.301 252.200 M225.309 253.600 C 225.309 254.590,225.387 254.995,225.482 254.500 C 225.578 254.005,225.578 253.195,225.482 252.700 C 225.387 252.205,225.309 252.610,225.309 253.600 M70.800 255.325 C 70.800 255.394,71.385 255.979,72.100 256.625 L 73.400 257.800 72.225 256.500 C 71.130 255.288,70.800 255.016,70.800 255.325 M180.554 260.000 C 180.554 262.750,180.618 263.875,180.696 262.500 C 180.774 261.125,180.774 258.875,180.696 257.500 C 180.618 256.125,180.554 257.250,180.554 260.000 M134.700 267.882 C 135.195 267.978,136.005 267.978,136.500 267.882 C 136.995 267.787,136.590 267.709,135.600 267.709 C 134.610 267.709,134.205 267.787,134.700 267.882 M359.714 272.600 C 359.717 273.700,359.795 274.103,359.887 273.495 C 359.979 272.886,359.977 271.986,359.882 271.495 C 359.787 271.003,359.711 271.500,359.714 272.600 M267.105 276.683 C 267.602 276.779,268.322 276.775,268.705 276.675 C 269.087 276.575,268.680 276.496,267.800 276.501 C 266.920 276.505,266.607 276.587,267.105 276.683 M273.505 276.683 C 274.002 276.779,274.722 276.775,275.105 276.675 C 275.487 276.575,275.080 276.496,274.200 276.501 C 273.320 276.505,273.007 276.587,273.505 276.683 M301.988 281.900 L 299.400 284.600 302.100 282.012 C 304.608 279.607,304.983 279.200,304.688 279.200 C 304.627 279.200,303.412 280.415,301.988 281.900 M238.200 283.200 C 239.059 284.080,239.852 284.800,239.962 284.800 C 240.072 284.800,239.459 284.080,238.600 283.200 C 237.741 282.320,236.948 281.600,236.838 281.600 C 236.728 281.600,237.341 282.320,238.200 283.200 M335.905 289.083 C 336.402 289.179,337.122 289.175,337.505 289.075 C 337.887 288.975,337.480 288.896,336.600 288.901 C 335.720 288.905,335.407 288.987,335.905 289.083 M346.505 290.687 C 347.114 290.779,348.014 290.777,348.505 290.682 C 348.997 290.587,348.500 290.511,347.400 290.514 C 346.300 290.517,345.897 290.595,346.505 290.687 M269.907 291.890 C 270.626 291.979,271.706 291.977,272.307 291.886 C 272.908 291.795,272.320 291.722,271.000 291.724 C 269.680 291.726,269.188 291.801,269.907 291.890 M279.183 324.500 C 280.841 326.266,281.200 326.584,281.200 326.283 C 281.200 326.219,280.345 325.364,279.300 324.383 L 277.400 322.600 279.183 324.500 M216.800 324.125 C 216.800 324.194,217.385 324.779,218.100 325.425 L 219.400 326.600 218.225 325.300 C 217.130 324.088,216.800 323.816,216.800 324.125 M241.375 326.100 L 240.200 327.400 241.500 326.225 C 242.215 325.579,242.800 324.994,242.800 324.925 C 242.800 324.616,242.470 324.888,241.375 326.100 " stroke="none" fill="#bc6a5c" fill-rule="evenodd"></path><path id="path4" d="M192.305 74.283 C 192.802 74.379,193.522 74.375,193.905 74.275 C 194.287 74.175,193.880 74.096,193.000 74.101 C 192.120 74.105,191.807 74.187,192.305 74.283 M187.375 76.900 L 186.200 78.200 187.500 77.025 C 188.712 75.930,188.984 75.600,188.675 75.600 C 188.606 75.600,188.021 76.185,187.375 76.900 M226.900 89.876 C 227.285 89.976,227.915 89.976,228.300 89.876 C 228.685 89.775,228.370 89.693,227.600 89.693 C 226.830 89.693,226.515 89.775,226.900 89.876 M225.500 93.095 C 226.655 93.176,228.545 93.176,229.700 93.095 C 230.855 93.014,229.910 92.948,227.600 92.948 C 225.290 92.948,224.345 93.014,225.500 93.095 M207.785 98.500 L 205.800 100.600 207.900 98.615 C 209.851 96.771,210.183 96.400,209.885 96.400 C 209.822 96.400,208.877 97.345,207.785 98.500 M210.000 100.600 C 209.028 101.590,208.323 102.400,208.433 102.400 C 208.543 102.400,209.428 101.590,210.400 100.600 C 211.372 99.610,212.077 98.800,211.967 98.800 C 211.857 98.800,210.972 99.610,210.000 100.600 M224.900 101.494 C 225.945 101.576,227.655 101.576,228.700 101.494 C 229.745 101.412,228.890 101.344,226.800 101.344 C 224.710 101.344,223.855 101.412,224.900 101.494 M268.501 111.400 C 268.505 112.280,268.587 112.593,268.683 112.095 C 268.779 111.598,268.775 110.878,268.675 110.495 C 268.575 110.113,268.496 110.520,268.501 111.400 M243.328 117.600 C 243.328 119.030,243.401 119.615,243.489 118.900 C 243.578 118.185,243.578 117.015,243.489 116.300 C 243.401 115.585,243.328 116.170,243.328 117.600 M254.528 118.400 C 254.528 119.830,254.601 120.415,254.689 119.700 C 254.778 118.985,254.778 117.815,254.689 117.100 C 254.601 116.385,254.528 116.970,254.528 118.400 M210.493 117.600 C 210.493 118.370,210.575 118.685,210.676 118.300 C 210.776 117.915,210.776 117.285,210.676 116.900 C 210.575 116.515,210.493 116.830,210.493 117.600 M170.901 122.600 C 170.905 123.480,170.987 123.793,171.083 123.295 C 171.179 122.798,171.175 122.078,171.075 121.695 C 170.975 121.313,170.896 121.720,170.901 122.600 M229.300 140.676 C 229.685 140.776,230.315 140.776,230.700 140.676 C 231.085 140.575,230.770 140.493,230.000 140.493 C 229.230 140.493,228.915 140.575,229.300 140.676 M89.700 143.087 C 90.305 143.178,91.295 143.178,91.900 143.087 C 92.505 142.995,92.010 142.920,90.800 142.920 C 89.590 142.920,89.095 142.995,89.700 143.087 M271.105 143.083 C 271.602 143.179,272.322 143.175,272.705 143.075 C 273.087 142.975,272.680 142.896,271.800 142.901 C 270.920 142.905,270.607 142.987,271.105 143.083 M114.705 157.883 C 115.202 157.979,115.922 157.975,116.305 157.875 C 116.687 157.775,116.280 157.696,115.400 157.701 C 114.520 157.705,114.207 157.787,114.705 157.883 M221.500 158.682 C 221.995 158.778,222.805 158.778,223.300 158.682 C 223.795 158.587,223.390 158.509,222.400 158.509 C 221.410 158.509,221.005 158.587,221.500 158.682 M120.100 161.076 C 120.485 161.176,121.115 161.176,121.500 161.076 C 121.885 160.975,121.570 160.893,120.800 160.893 C 120.030 160.893,119.715 160.975,120.100 161.076 M231.200 162.600 C 231.946 163.370,232.647 164.000,232.757 164.000 C 232.867 164.000,232.346 163.370,231.600 162.600 C 230.854 161.830,230.153 161.200,230.043 161.200 C 229.933 161.200,230.454 161.830,231.200 162.600 M139.583 167.700 C 140.564 168.745,141.419 169.600,141.483 169.600 C 141.784 169.600,141.466 169.241,139.700 167.583 L 137.800 165.800 139.583 167.700 M215.107 180.690 C 215.826 180.779,216.906 180.777,217.507 180.686 C 218.108 180.595,217.520 180.522,216.200 180.524 C 214.880 180.526,214.388 180.601,215.107 180.690 M136.281 189.600 C 136.406 190.810,136.574 191.875,136.654 191.967 C 136.935 192.287,136.717 189.391,136.387 188.400 C 136.171 187.754,136.134 188.180,136.281 189.600 M78.942 194.200 C 78.941 196.180,79.008 197.040,79.092 196.112 C 79.176 195.184,79.177 193.564,79.095 192.512 C 79.012 191.460,78.943 192.220,78.942 194.200 M147.728 194.400 C 147.728 195.830,147.801 196.415,147.889 195.700 C 147.978 194.985,147.978 193.815,147.889 193.100 C 147.801 192.385,147.728 192.970,147.728 194.400 M336.300 193.882 C 336.795 193.978,337.605 193.978,338.100 193.882 C 338.595 193.787,338.190 193.709,337.200 193.709 C 336.210 193.709,335.805 193.787,336.300 193.882 M200.493 196.400 C 200.493 197.170,200.575 197.485,200.676 197.100 C 200.776 196.715,200.776 196.085,200.676 195.700 C 200.575 195.315,200.493 195.630,200.493 196.400 M345.000 197.600 C 345.859 198.480,346.652 199.200,346.762 199.200 C 346.872 199.200,346.259 198.480,345.400 197.600 C 344.541 196.720,343.748 196.000,343.638 196.000 C 343.528 196.000,344.141 196.720,345.000 197.600 M316.705 197.883 C 317.202 197.979,317.922 197.975,318.305 197.875 C 318.687 197.775,318.280 197.696,317.400 197.701 C 316.520 197.705,316.207 197.787,316.705 197.883 M321.505 197.883 C 322.002 197.979,322.722 197.975,323.105 197.875 C 323.487 197.775,323.080 197.696,322.200 197.701 C 321.320 197.705,321.007 197.787,321.505 197.883 M176.000 198.925 C 176.000 198.994,176.585 199.579,177.300 200.225 L 178.600 201.400 177.425 200.100 C 176.330 198.888,176.000 198.616,176.000 198.925 M269.700 207.091 C 270.525 207.178,271.875 207.178,272.700 207.091 C 273.525 207.005,272.850 206.934,271.200 206.934 C 269.550 206.934,268.875 207.005,269.700 207.091 M265.905 207.483 C 266.402 207.579,267.122 207.575,267.505 207.475 C 267.887 207.375,267.480 207.296,266.600 207.301 C 265.720 207.305,265.407 207.387,265.905 207.483 M275.505 207.483 C 276.002 207.579,276.722 207.575,277.105 207.475 C 277.487 207.375,277.080 207.296,276.200 207.301 C 275.320 207.305,275.007 207.387,275.505 207.483 M98.800 209.000 C 99.546 209.770,100.247 210.400,100.357 210.400 C 100.467 210.400,99.946 209.770,99.200 209.000 C 98.454 208.230,97.753 207.600,97.643 207.600 C 97.533 207.600,98.054 208.230,98.800 209.000 M238.000 216.600 C 237.028 217.590,236.323 218.400,236.433 218.400 C 236.543 218.400,237.428 217.590,238.400 216.600 C 239.372 215.610,240.077 214.800,239.967 214.800 C 239.857 214.800,238.972 215.610,238.000 216.600 M92.000 217.325 C 92.000 217.394,92.585 217.979,93.300 218.625 L 94.600 219.800 93.425 218.500 C 92.330 217.288,92.000 217.016,92.000 217.325 M140.400 220.200 C 139.428 221.190,138.723 222.000,138.833 222.000 C 138.943 222.000,139.828 221.190,140.800 220.200 C 141.772 219.210,142.477 218.400,142.367 218.400 C 142.257 218.400,141.372 219.210,140.400 220.200 M240.985 220.500 L 239.000 222.600 241.100 220.615 C 243.051 218.771,243.383 218.400,243.085 218.400 C 243.022 218.400,242.077 219.345,240.985 220.500 M156.378 233.100 L 155.000 234.600 156.500 233.222 C 157.896 231.938,158.184 231.600,157.878 231.600 C 157.812 231.600,157.137 232.275,156.378 233.100 M337.331 239.000 C 337.333 240.540,337.405 241.121,337.492 240.291 C 337.579 239.461,337.577 238.201,337.489 237.491 C 337.400 236.781,337.329 237.460,337.331 239.000 M312.093 246.800 C 312.093 247.570,312.175 247.885,312.276 247.500 C 312.376 247.115,312.376 246.485,312.276 246.100 C 312.175 245.715,312.093 246.030,312.093 246.800 M296.946 250.200 C 296.947 252.400,297.014 253.249,297.095 252.087 C 297.176 250.924,297.176 249.124,297.093 248.087 C 297.011 247.049,296.945 248.000,296.946 250.200 M315.737 249.400 C 315.739 251.160,315.809 251.830,315.893 250.889 C 315.978 249.949,315.977 248.509,315.891 247.689 C 315.805 246.870,315.736 247.640,315.737 249.400 M149.309 250.000 C 149.309 250.990,149.387 251.395,149.482 250.900 C 149.578 250.405,149.578 249.595,149.482 249.100 C 149.387 248.605,149.309 249.010,149.309 250.000 M116.000 251.779 C 116.000 251.889,116.540 252.259,117.200 252.600 C 117.860 252.941,118.400 253.131,118.400 253.021 C 118.400 252.911,117.860 252.541,117.200 252.200 C 116.540 251.859,116.000 251.669,116.000 251.779 M312.101 254.200 C 312.105 255.080,312.187 255.393,312.283 254.895 C 312.379 254.398,312.375 253.678,312.275 253.295 C 312.175 252.913,312.096 253.320,312.101 254.200 M228.501 255.000 C 228.505 255.880,228.587 256.193,228.683 255.695 C 228.779 255.198,228.775 254.478,228.675 254.095 C 228.575 253.713,228.496 254.120,228.501 255.000 M180.109 258.000 C 180.109 258.990,180.187 259.395,180.282 258.900 C 180.378 258.405,180.378 257.595,180.282 257.100 C 180.187 256.605,180.109 257.010,180.109 258.000 M238.200 282.800 C 239.059 283.680,239.852 284.400,239.962 284.400 C 240.072 284.400,239.459 283.680,238.600 282.800 C 237.741 281.920,236.948 281.200,236.838 281.200 C 236.728 281.200,237.341 281.920,238.200 282.800 M335.900 289.482 C 336.395 289.578,337.205 289.578,337.700 289.482 C 338.195 289.387,337.790 289.309,336.800 289.309 C 335.810 289.309,335.405 289.387,335.900 289.482 M318.575 298.100 L 317.400 299.400 318.700 298.225 C 319.415 297.579,320.000 296.994,320.000 296.925 C 320.000 296.616,319.670 296.888,318.575 298.100 M218.524 300.200 C 218.526 301.520,218.601 302.012,218.690 301.293 C 218.779 300.574,218.777 299.494,218.686 298.893 C 218.595 298.292,218.522 298.880,218.524 300.200 M310.501 313.400 C 310.505 314.280,310.587 314.593,310.683 314.095 C 310.779 313.598,310.775 312.878,310.675 312.495 C 310.575 312.113,310.496 312.520,310.501 313.400 M312.493 324.800 C 312.493 325.570,312.575 325.885,312.676 325.500 C 312.776 325.115,312.776 324.485,312.676 324.100 C 312.575 323.715,312.493 324.030,312.493 324.800 M216.400 324.125 C 216.400 324.194,216.985 324.779,217.700 325.425 L 219.000 326.600 217.825 325.300 C 216.730 324.088,216.400 323.816,216.400 324.125 M309.375 332.500 L 308.200 333.800 309.500 332.625 C 310.215 331.979,310.800 331.394,310.800 331.325 C 310.800 331.016,310.470 331.288,309.375 332.500 " stroke="none" fill="#8a4c7c" fill-rule="evenodd"></path></g></svg>